<?xml version="1.0" encoding="utf-8"?>
<!-- Generator: Adobe Illustrator 22.1.0, SVG Export Plug-In . SVG Version: 6.00 Build 0)  -->
<svg id="レイヤー_1" data-name="レイヤー 1" xmlns="http://www.w3.org/2000/svg" viewBox="0 0 501 188.23"><defs><style>.cls-1{fill:#040000;}.cls-2{fill:#f5c51d;stroke:#f5c51d;stroke-miterlimit:10;}</style></defs><title>logo</title><path class="cls-1" d="M417.94,156c.27,0-7.07,0,0,0Z" transform="translate(0.5 0.5)"/><path class="cls-2" d="M93.87,0a93.45,93.45,0,1,0,93,93.7A93.54,93.54,0,0,0,93.87,0Z" transform="translate(0.5 0.5)"/><path class="cls-2" d="M350.11,10.15c-37-18.35-80.6-10.5-109.76,19.73C212.91,58.32,207,102.94,226.16,138.31c20.07,37.09,58.22,50.69,84.93,48.74V95.15h90.59C403.46,68.79,388.89,29.41,350.11,10.15Z" transform="translate(0.5 0.5)"/><path class="cls-2" d="M495.55,19.53c-7.76-14.83-23.91-22.21-39.16-18-15.7,4.31-26.45,19-26.46,36.34q0,55.82,0,111.63c0,20.93,15.58,37.73,35,37.77s35-16.72,35.07-37.66q0-28,0-56v-28c0-9.33,0-18.66,0-28A38.12,38.12,0,0,0,495.55,19.53Z" transform="translate(0.5 0.5)"/></svg>
