<?xml version="1.0" encoding="utf-8"?>
<!-- Generator: Adobe Illustrator 23.0.1, SVG Export Plug-In . SVG Version: 6.00 Build 0)  -->
<svg version="1.1" id="レイヤー_1" xmlns="http://www.w3.org/2000/svg" xmlns:xlink="http://www.w3.org/1999/xlink" x="0px"
	 y="0px" viewBox="0 0 32 32" style="enable-background:new 0 0 32 32;" xml:space="preserve">
<style type="text/css">
	.st0{fill:#33CCFF;}
</style>
<title>envelop</title>
<path class="st0" d="M29,4H3C1.4,4,0,5.3,0,7v20c0,1.6,1.4,3,3,3h26c1.6,0,3-1.4,3-3V7C32,5.3,30.6,4,29,4z M12.5,17.2L4,23.8V8.1
	C4,8.1,12.5,17.2,12.5,17.2z M5.5,8h21L16,15.9C16,15.9,5.5,8,5.5,8z M12.8,17.6L16,21l3.2-3.4l6.6,8.4H6.2L12.8,17.6L12.8,17.6z
	 M19.5,17.2L28,8.1v15.7C28,23.8,19.5,17.2,19.5,17.2z"/>
</svg>
