<?xml version="1.0" encoding="utf-8"?>
<!-- Generator: Adobe Illustrator 23.0.1, SVG Export Plug-In . SVG Version: 6.00 Build 0)  -->
<svg version="1.1" id="レイヤー_1" xmlns="http://www.w3.org/2000/svg" xmlns:xlink="http://www.w3.org/1999/xlink" x="0px"
	 y="0px" viewBox="0 0 32 32" style="enable-background:new 0 0 32 32;" xml:space="preserve">
<style type="text/css">
	.st0{fill:#33CCFF;}
</style>
<title>sphere</title>
<path class="st0" d="M15,2C6.7,2,0,8.7,0,17s6.7,15,15,15s15-6.7,15-15S23.3,2,15,2z M23.5,22c0.3-1.3,0.4-2.6,0.5-4h4
	c-0.1,1.4-0.4,2.7-1,4H23.5z M6.5,12c-0.3,1.3-0.4,2.6-0.5,4H2c0.1-1.4,0.4-2.7,1-4C3,12,6.5,12,6.5,12z M21.4,12
	c0.3,1.3,0.5,2.6,0.5,4h-6v-4H21.4z M16,10V4.1c0.5,0.1,0.9,0.4,1.4,0.7c0.8,0.6,1.6,1.5,2.3,2.6c0.5,0.8,0.9,1.6,1.2,2.6L16,10
	L16,10z M10.4,7.4c0.7-1.1,1.5-2,2.3-2.6c0.4-0.3,0.9-0.5,1.4-0.7V10H9.1C9.5,9.1,9.9,8.2,10.4,7.4L10.4,7.4z M14,12v4H8
	c0.1-1.4,0.2-2.7,0.5-4H14z M3,22c-0.5-1.3-0.9-2.6-1-4h4c0.1,1.4,0.2,2.7,0.5,4H3z M8,18h6v4H8.6C8.3,20.7,8.1,19.4,8,18z M14,24
	v5.9c-0.5-0.1-0.9-0.4-1.4-0.7c-0.8-0.6-1.6-1.5-2.3-2.6c-0.5-0.8-0.9-1.6-1.2-2.6L14,24L14,24z M19.6,26.6c-0.7,1.1-1.5,2-2.3,2.6
	c-0.4,0.3-0.9,0.5-1.4,0.7V24h4.9C20.5,24.9,20.1,25.8,19.6,26.6L19.6,26.6z M16,22v-4h6c-0.1,1.4-0.2,2.7-0.5,4
	C21.4,22,16,22,16,22z M24,16c-0.1-1.4-0.2-2.7-0.5-4H27c0.5,1.3,0.9,2.6,1,4H24z M26,10h-3c-0.6-1.8-1.4-3.4-2.4-4.7
	c1.3,0.6,2.5,1.5,3.6,2.5C24.9,8.5,25.5,9.2,26,10z M5.8,7.8c1.1-1.1,2.3-1.9,3.6-2.5C8.4,6.6,7.6,8.2,7,10H4
	C4.5,9.2,5.1,8.5,5.8,7.8z M4,24h3c0.6,1.8,1.4,3.4,2.4,4.7c-1.3-0.6-2.5-1.5-3.6-2.5C5.1,25.5,4.5,24.8,4,24z M24.2,26.2
	c-1.1,1.1-2.3,1.9-3.6,2.5c1-1.3,1.8-2.9,2.4-4.7h3C25.5,24.8,24.9,25.5,24.2,26.2z"/>
</svg>
