<?xml version="1.0" encoding="utf-8"?>
<!-- Generator: Adobe Illustrator 23.0.1, SVG Export Plug-In . SVG Version: 6.00 Build 0)  -->
<svg version="1.1" id="レイヤー_1" xmlns="http://www.w3.org/2000/svg" xmlns:xlink="http://www.w3.org/1999/xlink" x="0px"
	 y="0px" viewBox="0 0 512 512" style="enable-background:new 0 0 512 512;" xml:space="preserve">
<style type="text/css">
	.st0{fill:#F5C620;}
</style>
<title>camera</title>
<polygon class="st0" points="34,385.2 91.8,376.4 91.8,209.8 34,200.9 "/>
<path class="st0" d="M404.6,105.9l-11.6,40h-30l-5.3,4.4c-0.1-0.3-0.3-0.7-0.6-0.9l-4-4.5c-1.1-1.2-3-1.3-4.2-0.2l-14.4,12.8
	c-1.2,1.1-1.4,3-0.3,4.2l4,4.5c0.1,0.1,0.2,0.2,0.2,0.2l-5.5,4.6v22h-25v30.4l-78-6.1v4l-32-1.3v-5.3l-93-6.7v168.3l93-6.8v-5
	l32-1.3v6h0.4l-9,16.6h-43l-8.4,20.3h71.8l5.1-20.3l0,0l5.2-18.3l56-4.4v29.8h25v13h120v-260h13.4l11.6-40H404.6z"/>
</svg>
