<?xml version="1.0" encoding="utf-8"?>
<!-- Generator: Adobe Illustrator 23.0.1, SVG Export Plug-In . SVG Version: 6.00 Build 0)  -->
<svg version="1.1" id="レイヤー_1" xmlns="http://www.w3.org/2000/svg" xmlns:xlink="http://www.w3.org/1999/xlink" x="0px"
	 y="0px" viewBox="0 0 64 64" style="enable-background:new 0 0 64 64;" xml:space="preserve">
<style type="text/css">
	.st0{fill:#FFCC33;}
</style>
<title>icon</title>
<g>
	<path class="st0" d="M8.3,24.7h4.1l5.4,7.9v-7.9H22V39h-4.2l-5.4-7.9V39H8.3V24.7z"/>
	<path class="st0" d="M36.2,34.8h-8c0.1,0.6,0.2,1.1,0.5,1.4c0.4,0.4,0.9,0.7,1.5,0.7c0.4,0,0.8-0.1,1.1-0.3
		c0.2-0.1,0.4-0.3,0.7-0.7l4.3,0c-0.6,1-1.7,2.2-2.5,2.6c-0.8,0.5-2.1,0.7-3.6,0.7c-1.4,0-2.5-0.2-3.2-0.6s-1.4-1-2-1.8
		s-0.8-1.8-0.8-3c0-1.6,0.5-2.9,1.6-3.9s2.5-1.5,4.3-1.5c1.5,0,2.7,0.2,3.5,0.7s1.5,1.1,2,2s0.7,2,0.7,3.3V34.8z M32.1,32.9
		c-0.1-0.8-0.3-1.3-0.6-1.7c-0.3-0.3-0.8-0.5-1.3-0.5c-0.6,0-1.1,0.3-1.5,0.8c-0.2,0.3-0.4,0.8-0.5,1.4H32.1z"/>
	<path class="st0" d="M36.8,28.7h3.8l1.7,6.5l2.1-6.5H48l2.2,6.5l1.7-6.5h3.8L51.9,39h-3.5l-2.1-6.2l-2,6.2h-3.6L36.8,28.7z"/>
</g>
</svg>
