<svg id="レイヤー_1" data-name="レイヤー 1" xmlns="http://www.w3.org/2000/svg" viewBox="0 0 507.5 242.56"><defs><style>.cls-1{fill:#f5c51d;}</style></defs><title>404</title><path class="cls-1" d="M96.09,184.83H2.25V142.47L114.09,12.93l26.89,18V144.87h23.27v40H141v70.66l-44.89-36Zm0-40V86.53L46.5,144.87Z" transform="translate(-2.25 -12.93)"/><path class="cls-1" d="M180.31,126q0-52.86,19-74t58-21.12q18.71,0,30.73,4.61a56.78,56.78,0,0,1,19.6,12,63.91,63.91,0,0,1,11.95,15.55,81.08,81.08,0,0,1,7,19,177.46,177.46,0,0,1,5.19,43.25q0,50.46-17.08,73.85t-58.8,23.4q-23.4,0-37.82-7.46a61.24,61.24,0,0,1-23.64-21.88q-6.71-10.25-10.44-28A191.33,191.33,0,0,1,180.31,126Zm51.09.13q0,35.4,6.26,48.37t18.15,13a19,19,0,0,0,13.6-5.5q5.74-5.51,8.47-17.39t2.72-37q0-36.93-6.26-49.64T255.56,65.2q-12.78,0-18.47,13T231.4,126.16Z" transform="translate(-2.25 -12.93)"/><path class="cls-1" d="M441.59,184.83H347.75V142.47L459.59,12.93l26.89,18V144.87h23.27v40H486.48v70.66l-44.89-36Zm0-40V86.53L392,144.87Z" transform="translate(-2.25 -12.93)"/></svg>